<?xml version="1.0" encoding="UTF-8"?>
<!-- Generator: Adobe Illustrator 16.0.0, SVG Export Plug-In . SVG Version: 6.00 Build 0)  -->
<!DOCTYPE svg PUBLIC "-//W3C//DTD SVG 1.1//EN" "http://www.w3.org/Graphics/SVG/1.1/DTD/svg11.dtd">
<svg version="1.1" id="Layer_1" xmlns="http://www.w3.org/2000/svg" xmlns:xlink="http://www.w3.org/1999/xlink" x="0px" y="0px" width="643px" height="317px" viewBox="0 0 643 317" enable-background="new 0 0 643 317" xml:space="preserve">
<g>
	<path id="XMLID_1925_" fill="#756AB0" d="M605.553,231.988c0.008-0.08,0.009-0.163,0-0.247v-19.876l-30.341,1.666l-26.064-14.864   c-1.652-0.942-4.146-1.032-5.568-0.201l-31.726,18.542l-35.923,1.973v19.611c-0.149,0.707,0.31,1.491,1.345,2.082l55.041,31.389   c1.653,0.943,4.146,1.033,5.569,0.201l66.721-38.996C605.198,232.92,605.509,232.467,605.553,231.988L605.553,231.988   L605.553,231.988z"/>
	<path id="XMLID_857_" fill="#3F4A9F" d="M600.37,224.016l-2.397-1.404l0,0l-38.629,22.619v3.721l3.269,5.723l38.544-22.637   c0.305-0.145,0.5-0.525,0.501-1.083l0.022-4.431C601.681,225.557,601.095,224.436,600.37,224.016z"/>
	<path id="XMLID_853_" fill="#A29ECE" d="M561.799,246.665l-2.455-1.437v7.945l2.428,1.419c0.725,0.421,1.313-0.022,1.313-0.989   l0.021-4.43C563.108,248.208,562.522,247.085,561.799,246.665z"/>
	<path id="XMLID_847_" fill="#5193CF" d="M559.919,247.65l-2.399-1.401l0,0L554.438,248v3.721l3.269,5.723l2.996-1.77   c0.305-0.145,0.499-0.525,0.502-1.083l0.021-4.429C561.227,249.193,560.642,248.07,559.919,247.65z"/>
	<path id="XMLID_844_" fill="#A29ECE" d="M556.894,249.436L554.438,248v7.943l2.429,1.42c0.723,0.419,1.313-0.022,1.313-0.99   l0.021-4.43C558.201,250.979,557.616,249.854,556.894,249.436z"/>
	<path id="XMLID_1908_" fill="#A999C9" d="M530.813,256.449l-52.507-29.916c-0.468-0.271-0.896-0.301-1.232-0.127l0,0l0,0   c-0.007,0.004-0.011,0.006-0.017,0.01l-7.516,4.458l55.057,41.842l7.379-4.38c0.451-0.213,0.741-0.777,0.742-1.604l0.031-6.565   C532.754,258.734,531.886,257.07,530.813,256.449z"/>
	<path id="XMLID_1907_" fill="#8C86C0" d="M523.353,272.598l-52.51-29.914c-1.071-0.623-1.938-2.287-1.938-3.72l0.03-6.565   c0.003-1.432,0.875-2.088,1.947-1.467l52.509,29.918c1.071,0.621,1.938,2.286,1.937,3.719l-0.029,6.564   C525.296,272.563,524.424,273.221,523.353,272.598z"/>
	<path id="XMLID_1906_" fill="#45C5DF" d="M522.024,269.573l-50.129-28.537c-0.686-0.397-1.241-1.464-1.239-2.38v-3.842   c0.002-0.916,0.561-1.338,1.246-0.938l50.128,28.538c0.688,0.396,1.242,1.463,1.24,2.38v3.84   C523.269,269.55,522.71,269.971,522.024,269.573z"/>
	<path id="XMLID_1905_" fill="#C8DFF4" d="M473.957,239.959c-0.688-0.396-1.24-1.463-1.239-2.379l-0.001-3.229l-0.813-0.471   c-0.688-0.398-1.245,0.021-1.246,0.938v3.842c-0.002,0.915,0.555,1.98,1.24,2.38l50.128,28.536   c0.688,0.396,1.244-0.021,1.246-0.938v-0.613L473.957,239.959z"/>
	<path id="XMLID_1917_" fill="#C8DFF4" d="M604.606,213.143l-66.721,38.996c-1.424,0.832-3.916,0.741-5.569-0.201l-55.041-31.389   c-1.652-0.941-1.84-2.381-0.417-3.212l66.721-38.996c1.423-0.832,3.916-0.741,5.568,0.2l55.041,31.389   C605.841,210.874,606.028,212.311,604.606,213.143z"/>
	<path id="XMLID_1920_" fill="#45C5DF" d="M590.803,211.941l-49.852,29.137c-1.062,0.621-2.925,0.554-4.158-0.15l-41.124-23.451   c-1.235-0.705-1.375-1.778-0.313-2.4l49.849-29.135c1.063-0.623,2.928-0.555,4.161,0.149l41.124,23.451   C591.727,210.246,591.865,211.32,590.803,211.941z"/>
	<path id="XMLID_1927_" fill="#3F4A9F" d="M495.669,217.477l0.172,0.099l49.364-28.854c1.063-0.619,2.928-0.553,4.161,0.15   l40.952,23.354l0.483-0.283c1.063-0.619,0.924-1.694-0.313-2.398l-41.124-23.451c-1.233-0.705-3.098-0.771-4.161-0.15   l-49.849,29.136C494.294,215.697,494.434,216.771,495.669,217.477z"/>
	<path id="XMLID_1922_" fill="#A999C9" d="M590.803,206.963L540.951,236.1c-1.062,0.621-2.925,0.553-4.158-0.15l-41.124-23.452   c-1.235-0.703-1.375-1.778-0.313-2.397l49.849-29.138c1.063-0.621,2.928-0.554,4.161,0.149l41.124,23.451   C591.727,205.268,591.865,206.342,590.803,206.963z"/>
	<path id="XMLID_1923_" fill="#45C5DF" d="M590.803,193.302l-49.852,29.136c-1.062,0.623-2.925,0.555-4.158-0.149l-41.124-23.452   c-1.235-0.704-1.375-1.777-0.313-2.398l49.849-29.137c1.063-0.621,2.928-0.555,4.161,0.15l41.124,23.451   C591.727,191.605,591.865,192.68,590.803,193.302z"/>
	<g id="XMLID_1934_">
		<g>
			<g id="XMLID_91_">
				<path id="XMLID_92_" fill="#45C5DF" d="M539.113,216.422c-0.972,0-1.979-0.238-2.805-0.709l-41.123-23.451      c-0.96-0.547-1.513-1.348-1.519-2.193c-0.005-0.758,0.433-1.446,1.195-1.896l49.853-29.137c1.375-0.804,3.582-0.741,5.137,0.146      l41.123,23.452c0.959,0.548,1.513,1.347,1.518,2.194c0.004,0.757-0.433,1.445-1.197,1.895l-49.85,29.137      C540.8,216.234,539.972,216.422,539.113,216.422z M547.026,160.428c-0.509,0-0.989,0.096-1.328,0.293l-49.85,29.137      c-0.169,0.099-0.226,0.183-0.231,0.205c0.002,0.035,0.103,0.258,0.534,0.506l41.124,23.451c0.931,0.53,2.419,0.604,3.187,0.154      l49.849-29.135c0.17-0.1,0.227-0.186,0.231-0.205c-0.002-0.036-0.101-0.26-0.532-0.507l-41.125-23.452      C548.365,160.58,547.672,160.428,547.026,160.428z"/>
			</g>
			<g id="XMLID_87_">
				<path id="XMLID_88_" fill="#45C5DF" d="M539.113,216.422c-0.972,0-1.979-0.238-2.805-0.709l-41.123-23.451      c-0.96-0.547-1.513-1.348-1.519-2.193c-0.005-0.758,0.433-1.446,1.195-1.896l49.853-29.137c1.375-0.804,3.582-0.741,5.137,0.146      l41.123,23.452c0.959,0.548,1.513,1.347,1.518,2.194c0.004,0.757-0.433,1.445-1.197,1.895l-49.85,29.137      C540.8,216.234,539.972,216.422,539.113,216.422z M547.026,160.428c-0.509,0-0.989,0.096-1.328,0.293l-49.85,29.137      c-0.169,0.099-0.226,0.183-0.231,0.205c0.002,0.035,0.103,0.258,0.534,0.506l41.124,23.451c0.931,0.53,2.419,0.604,3.187,0.154      l49.849-29.135c0.17-0.1,0.227-0.186,0.231-0.205c-0.002-0.036-0.101-0.26-0.532-0.507l-41.125-23.452      C548.365,160.58,547.672,160.428,547.026,160.428z"/>
			</g>
		</g>
	</g>
</g>
<g display="none">
	<path id="XMLID_70_" display="inline" fill="#756AB0" d="M605.553,403.016c0.008-0.08,0.009-0.164,0-0.248v-19.875l-30.341,1.666   l-26.064-14.865c-1.652-0.941-4.146-1.031-5.568-0.2l-31.726,18.542l-35.923,1.973v19.611c-0.149,0.707,0.31,1.49,1.345,2.082   l55.041,31.389c1.653,0.943,4.146,1.033,5.569,0.201l66.721-38.996C605.198,403.945,605.509,403.493,605.553,403.016   L605.553,403.016L605.553,403.016z"/>
	<path id="XMLID_68_" display="inline" fill="#3F4A9F" d="M600.37,395.041l-2.397-1.402l0,0l-38.629,22.617v3.721l3.269,5.724   l38.544-22.638c0.305-0.145,0.5-0.525,0.501-1.082l0.022-4.431C601.681,396.583,601.095,395.461,600.37,395.041z"/>
	<path id="XMLID_67_" display="inline" fill="#A29ECE" d="M561.799,417.691l-2.455-1.437v7.945l2.428,1.419   c0.725,0.421,1.313-0.023,1.313-0.989l0.021-4.43C563.108,419.234,562.522,418.111,561.799,417.691z"/>
	<path id="XMLID_66_" display="inline" fill="#5193CF" d="M559.919,418.678l-2.399-1.402l0,0l-3.081,1.752v3.72l3.269,5.723   l2.996-1.769c0.305-0.146,0.499-0.526,0.502-1.083l0.021-4.429C561.227,420.221,560.642,419.098,559.919,418.678z"/>
	<path id="XMLID_65_" display="inline" fill="#A29ECE" d="M556.894,420.461l-2.455-1.436v7.944l2.429,1.419   c0.723,0.419,1.313-0.021,1.313-0.989l0.021-4.43C558.201,422.004,557.616,420.88,556.894,420.461z"/>
	<path id="XMLID_63_" display="inline" fill="#A999C9" d="M530.813,427.476l-52.507-29.915c-0.468-0.271-0.896-0.301-1.232-0.127   l0,0l0,0c-0.007,0.004-0.011,0.006-0.017,0.01l-7.516,4.457l55.057,41.843l7.379-4.38c0.451-0.213,0.741-0.778,0.742-1.604   l0.031-6.564C532.754,429.762,531.886,428.097,530.813,427.476z"/>
	<path id="XMLID_58_" display="inline" fill="#8C86C0" d="M523.353,443.624l-52.51-29.915c-1.071-0.622-1.938-2.287-1.938-3.719   l0.03-6.566c0.003-1.431,0.875-2.087,1.947-1.466l52.509,29.917c1.071,0.622,1.938,2.287,1.937,3.719l-0.029,6.565   C525.296,443.59,524.424,444.247,523.353,443.624z"/>
	<path id="XMLID_56_" display="inline" fill="#45C5DF" d="M522.024,440.6l-50.129-28.537c-0.686-0.397-1.241-1.463-1.239-2.379   v-3.842c0.002-0.917,0.561-1.338,1.246-0.939l50.128,28.539c0.688,0.396,1.242,1.463,1.24,2.38v3.84   C523.269,440.576,522.71,440.996,522.024,440.6z"/>
	<path id="XMLID_53_" display="inline" fill="#C8DFF4" d="M473.957,410.984c-0.688-0.396-1.24-1.463-1.239-2.379l-0.001-3.228   l-0.813-0.471c-0.688-0.398-1.245,0.021-1.246,0.938v3.841c-0.002,0.916,0.555,1.981,1.24,2.381l50.128,28.535   c0.688,0.397,1.244-0.021,1.246-0.938v-0.613L473.957,410.984z"/>
	<path id="XMLID_51_" display="inline" fill="#C8DFF4" d="M604.606,384.169l-66.721,38.996c-1.424,0.831-3.916,0.741-5.569-0.201   l-55.041-31.389c-1.652-0.942-1.84-2.382-0.417-3.212l66.721-38.996c1.423-0.832,3.916-0.741,5.568,0.199l55.041,31.39   C605.841,381.9,606.028,383.337,604.606,384.169z"/>
	<path id="XMLID_49_" display="inline" fill="#45C5DF" d="M590.803,382.968l-49.852,29.138c-1.062,0.621-2.925,0.554-4.158-0.15   l-41.124-23.452c-1.235-0.704-1.375-1.778-0.313-2.399l49.849-29.136c1.063-0.622,2.928-0.555,4.161,0.15l41.124,23.45   C591.727,381.271,591.865,382.348,590.803,382.968z"/>
	<path id="XMLID_47_" display="inline" fill="#3F4A9F" d="M495.669,388.502l0.172,0.1l49.364-28.854   c1.063-0.62,2.928-0.554,4.161,0.149l40.952,23.354l0.483-0.283c1.063-0.62,0.924-1.694-0.313-2.399l-41.124-23.45   c-1.233-0.705-3.098-0.772-4.161-0.149l-49.849,29.135C494.294,386.725,494.434,387.798,495.669,388.502z"/>
	<path id="XMLID_45_" display="inline" fill="#A999C9" d="M590.803,377.989l-49.852,29.136c-1.062,0.622-2.925,0.555-4.158-0.15   l-41.124-23.451c-1.235-0.703-1.375-1.778-0.313-2.398l49.849-29.137c1.063-0.621,2.928-0.555,4.161,0.15l41.124,23.45   C591.727,376.294,591.865,377.368,590.803,377.989z"/>
	<path id="XMLID_43_" display="inline" fill="#45C5DF" d="M590.803,376.328l-49.852,29.136c-1.062,0.622-2.925,0.554-4.158-0.149   l-41.124-23.453c-1.235-0.703-1.375-1.777-0.313-2.398l49.849-29.136c1.063-0.621,2.928-0.556,4.161,0.149l41.124,23.451   C591.727,374.633,591.865,375.706,590.803,376.328z"/>
	<g id="XMLID_1_" display="inline">
		<g>
			<g id="XMLID_29_">
				<path id="XMLID_30_" fill="#45C5DF" d="M539.113,399.448c-0.972,0-1.979-0.238-2.805-0.71l-41.123-23.45      c-0.96-0.547-1.513-1.349-1.519-2.194c-0.005-0.758,0.433-1.445,1.195-1.895l49.853-29.137c1.375-0.805,3.582-0.742,5.137,0.146      l41.123,23.452c0.959,0.547,1.513,1.347,1.518,2.193c0.004,0.758-0.433,1.446-1.197,1.896l-49.85,29.136      C540.8,399.262,539.972,399.448,539.113,399.448z M547.026,343.454c-0.509,0-0.989,0.095-1.328,0.293l-49.85,29.136      c-0.169,0.1-0.226,0.184-0.231,0.205c0.002,0.036,0.103,0.26,0.534,0.506l41.124,23.452c0.931,0.53,2.419,0.603,3.187,0.154      l49.849-29.136c0.17-0.1,0.227-0.185,0.231-0.205c-0.002-0.035-0.101-0.26-0.532-0.506L548.884,343.9      C548.365,343.605,547.672,343.454,547.026,343.454z"/>
			</g>
			<g id="XMLID_25_">
				<path id="XMLID_26_" fill="#45C5DF" d="M539.113,399.448c-0.972,0-1.979-0.238-2.805-0.71l-41.123-23.45      c-0.96-0.547-1.513-1.349-1.519-2.194c-0.005-0.758,0.433-1.445,1.195-1.895l49.853-29.137c1.375-0.805,3.582-0.742,5.137,0.146      l41.123,23.452c0.959,0.547,1.513,1.347,1.518,2.193c0.004,0.758-0.433,1.446-1.197,1.896l-49.85,29.136      C540.8,399.262,539.972,399.448,539.113,399.448z M547.026,343.454c-0.509,0-0.989,0.095-1.328,0.293l-49.85,29.136      c-0.169,0.1-0.226,0.184-0.231,0.205c0.002,0.036,0.103,0.26,0.534,0.506l41.124,23.452c0.931,0.53,2.419,0.603,3.187,0.154      l49.849-29.136c0.17-0.1,0.227-0.185,0.231-0.205c-0.002-0.035-0.101-0.26-0.532-0.506L548.884,343.9      C548.365,343.605,547.672,343.454,547.026,343.454z"/>
			</g>
		</g>
	</g>
</g>
<linearGradient id="XMLID_3_" gradientUnits="userSpaceOnUse" x1="754.3098" y1="-328.5361" x2="752.2213" y2="-323.7327" gradientTransform="matrix(1 0 0 -1 -273.5996 -78.8398)">
	<stop offset="0" style="stop-color:#8575B5"/>
	<stop offset="1" style="stop-color:#FEF6F9"/>
</linearGradient>
<path id="XMLID_1937_" fill="url(#XMLID_3_)" d="M474.465,237.793c-0.004,0.874,0.627,1.964,1.415,2.439  c0.797,0.481,1.455,0.154,1.461-0.736c0.005-0.893-0.646-1.997-1.444-2.461C475.106,236.574,474.47,236.916,474.465,237.793z"/>
<g>
	<path id="XMLID_832_" fill="#C8DFF4" d="M144.271,298.589c0-0.005,0-0.006,0-0.011c-1.229-2.102-11.757-15.73-26.046-8.158   c-10.074,5.337-12.767,12.68-13.629,15.751c-0.184,0.394-0.281,0.804-0.289,1.222c-0.004,0.024-0.008,0.041-0.008,0.041l0.01,0.004   c-0.005,1.437,0.581,3.642,2.604,4.842l5.541,3.287c2.051,1.218,5.897,1.586,9.484,1.365c3.521-0.217,6.91-1.416,9.826-3.402   l10.313-5.973c1.113-0.761,2.08-1.734,2.726-2.914C145.892,302.646,145.298,299.977,144.271,298.589z"/>
	<path id="XMLID_827_" fill="#517BBE" d="M110.512,310.346c0,0,3.832-8.859,9.322-13.867c0,0,4.535,2.076,7.279,4.08   c2.745,2.002,0.111,3.599-2.254,6.705c-2.555,3.352-3.117,4.959-6.335,5.432C115.308,313.169,110.512,310.346,110.512,310.346z"/>
	<path id="XMLID_836_" fill="#517BBE" d="M104.804,305.498L104.804,305.498c0,0-0.076,1.494,4.732,4.004   c0,0,1.985-4.544,4.542-8.141c2.555-3.596,4.524-5.5,4.524-5.5s-3.025-1.623-5.07-2.449   C107.246,298.085,105.632,302.832,104.804,305.498z"/>
	<path id="XMLID_837_" fill="#59A5DB" d="M104.309,307.577c-0.003,1.438,0.582,3.646,2.604,4.847l5.542,3.285   c2.05,1.217,5.896,1.586,9.485,1.364c3.521-0.218,6.909-1.412,9.824-3.401l10.313-5.977c1.112-0.756,2.08-1.73,2.727-2.914   c0.71-1.303,0.756-2.834,0.38-4.17c-0.956-0.663-2.97-2.006-5.972-1.329c-3.002,0.676-5.089,2.59-7.098,6.563   c-2.008,3.973-8.496,7.668-11.104,8.518c-2.604,0.852-6.479,0.283-10.774-2.129c-4.294-2.416-5.931-4.7-5.931-4.7   c-0.003,0.026-0.007,0.043-0.007,0.043H104.309z"/>
	
		<radialGradient id="XMLID_4_" cx="442.3313" cy="-417.9971" r="8.488" gradientTransform="matrix(0.9969 0.0787 0.0787 -0.9969 -267.8816 -149.6146)" gradientUnits="userSpaceOnUse">
		<stop offset="0.008" style="stop-color:#FEF6F9"/>
		<stop offset="1" style="stop-color:#4B93CF"/>
	</radialGradient>
	<path id="XMLID_909_" fill="url(#XMLID_4_)" d="M140.813,303.598c-0.085,1.105-0.877,1.947-1.766,1.879   c-0.888-0.07-1.537-1.027-1.449-2.135c0.088-1.105,0.878-1.949,1.767-1.878C140.252,301.533,140.902,302.486,140.813,303.598z"/>
</g>
<g id="_x34_">
	
		<linearGradient id="XMLID_5_" gradientUnits="userSpaceOnUse" x1="465.3313" y1="-327.7256" x2="463.4748" y2="-327.7256" gradientTransform="matrix(1 0 0 -1 -273.5996 -78.8398)">
		<stop offset="0" style="stop-color:#8777B7"/>
		<stop offset="1" style="stop-color:#C8ACD2"/>
	</linearGradient>
	<path id="XMLID_1904_" fill="url(#XMLID_5_)" d="M208.21,247.344L208.21,247.344l0.001-1.371l-2.118-0.135l-9.184-5.297   c-0.45-0.259-1.199-0.247-1.676,0.027l-13.375,7.731c-0.221,0.127-0.354,0.298-0.37,0.472l-0.167,1.871l-0.088,0.032v0.951   l-0.021,0.251c-0.005,0.057,0.005,0.107,0.021,0.16v0.007h0.003c0.042,0.125,0.143,0.238,0.298,0.328l8.428,4.858   c0.45,0.261,1.201,0.248,1.675-0.026l2.644-1.526c0.264-0.152,0.39-0.373,0.274-0.568c-0.166-0.279-0.044-0.608,0.36-0.842   l2.625-1.519c0.402-0.233,0.976-0.304,1.46-0.208c0.335,0.064,0.719-0.008,0.98-0.159l7.86-4.543   C208.083,247.699,208.206,247.521,208.21,247.344z"/>
	<g id="XMLID_1894_">
		
			<linearGradient id="XMLID_6_" gradientUnits="userSpaceOnUse" x1="308.1418" y1="-243.2744" x2="251.2194" y2="-210.0811" gradientTransform="matrix(0.8658 -0.5005 -1.0003 -0.5768 -251.1439 253.9936)">
			<stop offset="0" style="stop-color:#8575B5"/>
			<stop offset="1" style="stop-color:#FEF6F9"/>
		</linearGradient>
		<path id="XMLID_1903_" fill="url(#XMLID_6_)" d="M195.234,239.199l-13.375,7.73c-0.221,0.127-0.354,0.297-0.37,0.473l-0.276,3.104    c-0.018,0.187,0.1,0.366,0.323,0.495l8.428,4.859c0.45,0.259,1.201,0.248,1.675-0.027l2.645-1.527    c0.263-0.151,0.389-0.373,0.273-0.566c-0.166-0.279-0.044-0.61,0.36-0.844l2.625-1.518c0.402-0.232,0.976-0.304,1.46-0.208    c0.335,0.065,0.719-0.009,0.98-0.159l7.86-4.543c0.475-0.273,0.496-0.709,0.046-0.969l-10.978-6.33    C196.459,238.912,195.71,238.925,195.234,239.199z"/>
		<g id="XMLID_1895_">
			
				<linearGradient id="XMLID_7_" gradientUnits="userSpaceOnUse" x1="257.1794" y1="-213.4263" x2="269.2715" y2="-219.6583" gradientTransform="matrix(0.8658 -0.5005 -1.0003 -0.5768 -251.1439 253.9936)">
				<stop offset="0" style="stop-color:#5356A5"/>
				<stop offset="1" style="stop-color:#4EC5D4"/>
			</linearGradient>
			<path id="XMLID_1897_" fill="url(#XMLID_7_)" d="M189.287,249.48l1.043-0.727c0.436,0.17,0.845,0.244,1.229,0.221     c0.383-0.023,0.755-0.14,1.114-0.347c0.381-0.221,0.591-0.431,0.633-0.63c0.04-0.2-0.042-0.359-0.246-0.479     c-0.132-0.074-0.284-0.115-0.458-0.121c-0.173-0.006-0.395,0.029-0.666,0.106c-0.184,0.056-0.579,0.19-1.188,0.408     c-0.784,0.278-1.411,0.433-1.883,0.454c-0.666,0.031-1.219-0.079-1.657-0.332c-0.283-0.163-0.463-0.364-0.54-0.604     c-0.076-0.24-0.021-0.49,0.169-0.748s0.511-0.518,0.96-0.777c0.735-0.426,1.442-0.657,2.118-0.695     c0.677-0.039,1.278,0.084,1.809,0.367l-1.135,0.711c-0.335-0.135-0.649-0.189-0.94-0.166s-0.604,0.133-0.937,0.325     c-0.344,0.198-0.546,0.392-0.606,0.581c-0.039,0.123,0.014,0.226,0.156,0.309c0.131,0.075,0.302,0.105,0.513,0.094     c0.27-0.02,0.756-0.156,1.458-0.414c0.705-0.26,1.264-0.429,1.678-0.509c0.412-0.079,0.815-0.097,1.21-0.05     c0.395,0.048,0.768,0.173,1.12,0.375c0.316,0.184,0.521,0.409,0.611,0.678c0.092,0.268,0.035,0.538-0.171,0.813     c-0.206,0.274-0.563,0.56-1.073,0.854c-0.738,0.428-1.47,0.662-2.191,0.704C190.694,249.93,189.984,249.794,189.287,249.48z"/>
			
				<linearGradient id="XMLID_8_" gradientUnits="userSpaceOnUse" x1="258.7434" y1="-211.2607" x2="270.8071" y2="-217.4781" gradientTransform="matrix(0.8658 -0.5005 -1.0003 -0.5768 -251.1439 253.9936)">
				<stop offset="0" style="stop-color:#5356A5"/>
				<stop offset="1" style="stop-color:#4EC5D4"/>
			</linearGradient>
			<path id="XMLID_1899_" fill="url(#XMLID_8_)" d="M191.296,243.995l2.162-1.251c0.486-0.28,0.895-0.475,1.221-0.583     c0.439-0.144,0.904-0.216,1.394-0.216c0.491,0,0.978,0.064,1.461,0.195c0.481,0.131,0.983,0.348,1.503,0.646     c0.458,0.263,0.791,0.523,1.001,0.785c0.256,0.316,0.375,0.627,0.353,0.928c-0.016,0.229-0.146,0.473-0.389,0.736     c-0.184,0.195-0.493,0.42-0.93,0.672l-2.226,1.285L191.296,243.995z M193.418,243.854l3.675,2.119l0.884-0.511     c0.33-0.19,0.55-0.339,0.662-0.442c0.146-0.14,0.229-0.274,0.246-0.41c0.019-0.135-0.057-0.299-0.226-0.488     c-0.168-0.189-0.468-0.407-0.896-0.654c-0.429-0.248-0.799-0.415-1.108-0.501c-0.31-0.087-0.6-0.125-0.873-0.114     c-0.271,0.008-0.543,0.063-0.809,0.166c-0.2,0.073-0.541,0.25-1.023,0.529L193.418,243.854z"/>
		</g>
	</g>
	
		<linearGradient id="XMLID_9_" gradientUnits="userSpaceOnUse" x1="466.8987" y1="-338.3193" x2="472.1442" y2="-293.7224" gradientTransform="matrix(1 0 0 -1 -273.5996 -78.8398)">
		<stop offset="0" style="stop-color:#4755A5"/>
		<stop offset="1" style="stop-color:#70CAC5"/>
	</linearGradient>
	<path id="XMLID_1896_" fill="url(#XMLID_9_)" d="M195.417,237.227l-13.376,7.731c-0.222,0.127-0.354,0.296-0.368,0.474   l-0.277,3.104c-0.017,0.188,0.101,0.365,0.323,0.494l8.428,4.861c0.45,0.26,1.201,0.246,1.675-0.029l2.645-1.526   c0.262-0.149,0.388-0.373,0.272-0.565c-0.166-0.279-0.044-0.611,0.359-0.845l2.625-1.518c0.403-0.232,0.977-0.304,1.459-0.208   c0.335,0.064,0.72-0.008,0.982-0.158l7.859-4.544c0.476-0.274,0.496-0.707,0.045-0.968L197.09,237.2   C196.643,236.939,195.892,236.951,195.417,237.227z"/>
</g>
<g>
	<path id="XMLID_1912_" fill="#5193CF" d="M177.445,263.419l-8.715-5.149c-0.167-0.097-0.319-0.105-0.439-0.045l0,0l0,0   c-0.002,0.002-0.004,0.004-0.006,0.004l-17.531,10.031l9.625,9.414l17.482-10.005c0.16-0.076,0.266-0.278,0.266-0.573l0.012-2.347   C178.139,264.236,177.829,263.643,177.445,263.419z"/>
	<path id="XMLID_1911_" fill="#8C86C0" d="M159.933,277.632l-8.714-5.149c-0.383-0.223-0.694-0.817-0.692-1.33l0.012-2.346   c0.001-0.513,0.313-0.748,0.695-0.524l8.716,5.149c0.384,0.221,0.693,0.816,0.692,1.328l-0.011,2.348   C160.629,277.62,160.316,277.854,159.933,277.632z"/>
	
		<linearGradient id="XMLID_10_" gradientUnits="userSpaceOnUse" x1="427.7756" y1="-355.6343" x2="427.35" y2="-354.8844" gradientTransform="matrix(1 0 0 -1 -273.5996 -78.8398)">
		<stop offset="0" style="stop-color:#595AA7"/>
		<stop offset="1" style="stop-color:#EFDDEC"/>
	</linearGradient>
	<path id="XMLID_1910_" fill="url(#XMLID_10_)" d="M158.278,273.436l-5.586-3.303c-0.106-0.061-0.206-0.066-0.282-0.027l0,0l0,0   c-0.001,0.002-0.002,0.002-0.004,0.002l-6.141,3.539l6.171,6.035l6.11-3.521c0.103-0.049,0.17-0.18,0.17-0.367l0.007-1.506   C158.723,273.959,158.524,273.577,158.278,273.436z"/>
	<path id="XMLID_1909_" fill="#7876B7" d="M152.15,279.654l-5.586-3.303c-0.246-0.143-0.444-0.523-0.444-0.853l0.007-1.505   c0.001-0.329,0.201-0.479,0.445-0.336l5.588,3.302c0.245,0.142,0.444,0.522,0.443,0.853l-0.007,1.504   C152.596,279.646,152.396,279.796,152.15,279.654z"/>
	
		<linearGradient id="XMLID_11_" gradientUnits="userSpaceOnUse" x1="421.8284" y1="-353.4609" x2="422.2317" y2="-354.2003" gradientTransform="matrix(1 0 0 -1 -273.5996 -78.8398)">
		<stop offset="0" style="stop-color:#6055A4"/>
		<stop offset="1" style="stop-color:#A79DCD"/>
	</linearGradient>
	<path id="XMLID_1913_" fill="url(#XMLID_11_)" d="M151.765,278.883l-4.854-2.874c-0.151-0.087-0.273-0.321-0.273-0.524v-0.848   c0-0.201,0.124-0.295,0.275-0.207l4.853,2.875c0.151,0.088,0.274,0.321,0.273,0.524v0.847   C152.04,278.878,151.917,278.971,151.765,278.883z"/>
	
		<linearGradient id="XMLID_12_" gradientUnits="userSpaceOnUse" x1="436.6116" y1="-362.8975" x2="420.0069" y2="-354.4692" gradientTransform="matrix(1 0 0 -1 -273.5996 -78.8398)">
		<stop offset="0" style="stop-color:#4755A5"/>
		<stop offset="1" style="stop-color:#70CAC5"/>
	</linearGradient>
	<path id="XMLID_1918_" fill="url(#XMLID_12_)" d="M152.04,278.676v-0.299l-5.401-3.162v0.27c0,0.203,0.122,0.438,0.273,0.524   l4.854,2.874C151.917,278.971,152.04,278.878,152.04,278.676z"/>
	
		<linearGradient id="XMLID_13_" gradientUnits="userSpaceOnUse" x1="432.7366" y1="-360.1685" x2="416.5824" y2="-351.9689" gradientTransform="matrix(1 0 0 -1 -273.5996 -78.8398)">
		<stop offset="0" style="stop-color:#4755A5"/>
		<stop offset="1" style="stop-color:#70CAC5"/>
	</linearGradient>
	<path id="XMLID_1919_" fill="url(#XMLID_13_)" d="M152.04,278.377v-0.548c0-0.203-0.122-0.438-0.273-0.524l-4.343-2.572l0,0   l-0.785,0.483L152.04,278.377z"/>
	
		<linearGradient id="XMLID_14_" gradientUnits="userSpaceOnUse" x1="429.1477" y1="-353.2026" x2="422.4891" y2="-349.8228" gradientTransform="matrix(1 0 0 -1 -273.5996 -78.8398)">
		<stop offset="0" style="stop-color:#595AA7"/>
		<stop offset="1" style="stop-color:#D7BFDC"/>
	</linearGradient>
	<polygon id="XMLID_1914_" fill="url(#XMLID_14_)" points="150.142,272.342 151.588,271.523 153.032,272.342 151.578,273.176  "/>
	
		<linearGradient id="XMLID_15_" gradientUnits="userSpaceOnUse" x1="431.9592" y1="-354.7822" x2="425.3007" y2="-351.4024" gradientTransform="matrix(1 0 0 -1 -273.5996 -78.8398)">
		<stop offset="0" style="stop-color:#595AA7"/>
		<stop offset="1" style="stop-color:#D7BFDC"/>
	</linearGradient>
	<polygon id="XMLID_1915_" fill="url(#XMLID_15_)" points="152.953,273.923 154.399,273.104 155.843,273.923 154.389,274.758  "/>
	<path id="XMLID_1921_" fill="#45C5DF" d="M174.406,265.16l-8.736-5.163c-0.167-0.099-0.321-0.108-0.441-0.047l0,0   c-0.002,0.002-0.004,0.003-0.005,0.005l-1.833,1.059l0,0l-0.005,0.004c0.002,0,0.004-0.002,0.005-0.004l0,0   c0.122-0.062,0.277-0.051,0.446,0.047l8.811,5.207c0.388,0.226,0.702,0.828,0.7,1.344l-0.011,2.373c0,0.127-0.022,0.23-0.057,0.32   l1.544-0.884c0.16-0.075,0.265-0.278,0.266-0.575l0.012-2.354C175.102,265.979,174.792,265.383,174.406,265.16z"/>
</g>
<g>
	
		<linearGradient id="XMLID_16_" gradientUnits="userSpaceOnUse" x1="327.5305" y1="-209.5103" x2="315.116" y2="-209.5103" gradientTransform="matrix(1 0 0 -1 -273.5996 -78.8398)">
		<stop offset="0" style="stop-color:#A185BD"/>
		<stop offset="1" style="stop-color:#C8ACD2"/>
	</linearGradient>
	<path id="XMLID_2964_" fill="url(#XMLID_16_)" d="M74.476,130.943l-0.02-3.724l-3.642-0.018l-19.126-11.089   c-2.854-1.654-7.847-1.456-11.148,0.444l-17.644,10.145c-0.144,0.082-0.28,0.167-0.414,0.254l-2.321-0.013v3.454h0.002   c0.021,1.028,0.653,2.002,1.923,2.739L42.95,145.23c2.854,1.653,7.845,1.457,11.147-0.444l17.644-10.145   C73.576,133.587,74.502,132.229,74.476,130.943L74.476,130.943z"/>
	<path id="XMLID_2963_" fill="#C8DFF4" d="M42.95,141.778l-20.864-12.094c-2.855-1.656-2.492-4.537,0.81-6.436l17.644-10.147   c3.303-1.897,8.295-2.095,11.148-0.441l20.864,12.094c2.855,1.655,2.492,4.534-0.811,6.436l-17.644,10.144   C50.795,143.234,45.804,143.432,42.95,141.778z"/>
	<path id="XMLID_282_" fill="#756AB0" d="M66.213,117.472l-16.675-9.852c-0.32-0.187-0.612-0.204-0.843-0.086l0,0l0,0   c-0.004,0.001-0.008,0.004-0.01,0.006l-18.33,10.561l18.418,18.013l18.234-10.508c0.309-0.146,0.507-0.534,0.509-1.098l0.021-4.493   C67.54,119.039,66.947,117.899,66.213,117.472z"/>
	<path id="XMLID_281_" fill="#8C86C0" d="M47.921,136.032l-16.673-9.855c-0.734-0.424-1.329-1.563-1.326-2.544l0.021-4.49   c0.002-0.979,0.6-1.427,1.332-1.002l16.675,9.852c0.733,0.427,1.326,1.564,1.325,2.546l-0.021,4.49   C49.252,136.007,48.656,136.458,47.921,136.032z"/>
	<path id="XMLID_280_" fill="#45C5DF" d="M47.013,133.963l-15.046-8.909c-0.47-0.273-0.849-1.004-0.849-1.631v-2.625   c0.002-0.629,0.383-0.916,0.853-0.641l15.046,8.908c0.469,0.272,0.851,1,0.848,1.626v2.629   C47.865,133.945,47.483,134.234,47.013,133.963z"/>
	
		<linearGradient id="SVGID_1_" gradientUnits="userSpaceOnUse" x1="308.7185" y1="-200.6592" x2="309.8976" y2="-202.4483" gradientTransform="matrix(1 0 0 -1 -273.5996 -78.8398)">
		<stop offset="0" style="stop-color:#6055A4"/>
		<stop offset="1" style="stop-color:#CFC1DF"/>
	</linearGradient>
	<path fill="url(#SVGID_1_)" d="M47.868,132.902v0.421c-0.002,0.627-0.385,0.915-0.854,0.642l-15.046-8.908   c-0.47-0.275-0.85-1.003-0.849-1.629v-2.629c0.001-0.626,0.383-0.915,0.853-0.641l0.557,0.323v2.208   c-0.001,0.626,0.38,1.354,0.85,1.626L47.868,132.902z"/>
	<g id="XMLID_354_">
		<g>
			<path id="XMLID_31_" fill="#3F4A9F" d="M65.368,122.797L65.368,122.797c-0.086-0.354,0.131-0.709,0.483-0.796l2.771-0.677     c0.353-0.087,0.71,0.131,0.797,0.482l0,0c0.087,0.354-0.131,0.711-0.484,0.798l-2.77,0.677     C65.811,123.368,65.456,123.151,65.368,122.797z"/>
		</g>
	</g>
	<circle id="XMLID_350_" fill="#756AB0" cx="69.922" cy="121.619" r="1.376"/>
	<path id="XMLID_352_" fill="#3F4A9F" d="M70.833,101.066h-1.822l-0.236,19.389c0,0.397,0.514,0.722,1.148,0.722   c0.633,0,1.145-0.324,1.145-0.722L70.833,101.066z"/>
	
		<linearGradient id="XMLID_17_" gradientUnits="userSpaceOnUse" x1="343.7209" y1="-180.0601" x2="342.4796" y2="-179.0774" gradientTransform="matrix(1 0 0 -1 -273.5996 -78.8398)">
		<stop offset="0" style="stop-color:#4755A5"/>
		<stop offset="1" style="stop-color:#70CAC5"/>
	</linearGradient>
	<ellipse id="XMLID_345_" fill="url(#XMLID_17_)" cx="69.923" cy="101.066" rx="0.911" ry="0.549"/>
	<path id="XMLID_346_" fill="#756AB0" d="M70.833,100.516c0,0.304-0.408,0.55-0.91,0.55c-0.504,0-0.912-0.247-0.912-0.55   c0-0.303,0.408-1.08,0.912-1.08C70.425,99.436,70.833,100.213,70.833,100.516z"/>
	
		<linearGradient id="XMLID_18_" gradientUnits="userSpaceOnUse" x1="328.6165" y1="-223.6245" x2="306.1488" y2="-204.2206" gradientTransform="matrix(1 0 0 -1 -273.5996 -78.8398)">
		<stop offset="0" style="stop-color:#4755A5"/>
		<stop offset="1" style="stop-color:#70CAC5"/>
	</linearGradient>
	<path id="XMLID_353_" fill="url(#XMLID_18_)" d="M44.688,136.271l-15.047-8.909c-0.47-0.271-0.851-1-0.848-1.626v-2.629   c0-0.626,0.382-0.915,0.852-0.643l15.046,8.911c0.471,0.271,0.85,1.001,0.849,1.628v2.628   C45.538,136.256,45.157,136.544,44.688,136.271z"/>
	<g id="_x34__3_">
		<path id="XMLID_344_" fill="#45C5DF" d="M46.635,110.885l0.011-0.001l0.001,0.001c0.454-0.101,1.013,0.003,1.615,0.351    c1.552,0.89,2.813,3.013,2.801,4.732c-0.004,0.66-0.196,1.159-0.52,1.474v0.002l-0.004,0.002c-0.167,0.16-0.54,0.364-0.77,0.423    l-0.956,0.524l-3.837-6.622l1.052-0.565C46.199,111.047,46.404,110.941,46.635,110.885z"/>
		<path id="XMLID_343_" fill="#45C5DF" d="M43.111,105.149c1.009-0.535,2.756-0.955,5.135,0.358c2.58,1.428,4.506,4.241,5.591,6.156    c0.568,1.006,0.458,2.07-0.229,2.208l-0.354,0.198l-0.945,0.526l-5.886-6.682c-0.722-0.051-1.3,0.134-1.702,0.342    c-0.428,0.217-1.056-0.095-1.516-0.76l-0.004-0.006c-0.167-0.242-0.289-0.499,0.118-1.074l-1.633-0.353L43.111,105.149z"/>
		<path id="XMLID_342_" fill="#45C5DF" d="M39.98,99.363c1.471-0.786,4.313-1.531,8.283,0.522c4.336,2.252,7.342,6.614,8.806,9.136    c0.575,0.987,0.479,2.064-0.19,2.245c-0.05,0.013-0.407,0.238-0.46,0.24l-1,0.556l-4.64-6.312l-6.416-3.894    c-1.361-0.013-2.39,0.388-3.016,0.736c-0.434,0.238-1.084-0.106-1.532-0.809l-0.008-0.01c-0.008-0.013-0.015-0.024-0.022-0.039    l-0.41-0.008l-0.829-1.361l0.813-0.633L39.98,99.363z"/>
		<path id="XMLID_341_" fill="#45C5DF" d="M35.359,94.423l1.17-0.843c1.635-1.114,5.546-2.794,11.839,0.423    c0.063,0.031,0.129,0.067,0.195,0.1c6.65,3.48,10.811,9.496,12.616,12.601c0.45,0.771,0.569,1.461,0.247,1.881l-0.322,0.325    l-0.184,0.104c-0.069,0.055-0.365,0.199-0.456,0.225l-1.083,0.573l-1.915-2.637l-7.887-9.068l-4.417-2.373    c-3.633-0.999-5.969,0.061-7.036,0.776c-0.413,0.278-1.057-0.025-1.508-0.707V95.8c-0.222-0.333-0.358-0.698-0.414-1.04    L35.359,94.423z"/>
	</g>
	<g id="_x33__2_">
		<g id="XMLID_351_">
			<path id="XMLID_340_" fill="#5193CF" d="M35.45,96.629c0.444,0.68,1.079,0.983,1.486,0.711c1.328-0.896,4.66-2.329,10.073,0.542     c0.056,0.028,0.111,0.058,0.167,0.087c5.669,3.072,9.12,8.21,10.535,10.692c0.455,0.794,1.188,1.276,1.733,1.131l0,0     c0.682-0.182,0.78-1.25,0.206-2.246c-1.78-3.088-5.881-9.073-12.434-12.552c-0.065-0.032-0.13-0.068-0.194-0.1     c-6.202-3.219-10.056-1.571-11.665-0.471c-0.496,0.337-0.455,1.376,0.089,2.206H35.45z"/>
		</g>
		<g id="XMLID_349_">
			<path id="XMLID_337_" fill="#5193CF" d="M38.599,102.58c0.442,0.699,1.083,1.041,1.511,0.808c1.113-0.611,3.51-1.408,6.831,0.374     c0.039,0.019,0.078,0.042,0.118,0.064c3.316,1.827,5.604,5.231,6.687,7.135c0.442,0.777,1.149,1.245,1.672,1.102l0,0     c0.66-0.176,0.755-1.233,0.188-2.217c-1.443-2.505-4.405-6.826-8.679-9.076c-4.116-2.163-7.002-1.196-8.381-0.403     c-0.521,0.299-0.496,1.342,0.048,2.204L38.599,102.58z"/>
		</g>
		<g id="XMLID_347_">
			<path id="XMLID_335_" fill="#5193CF" d="M52.194,114.629l0.006-0.002c0.674-0.134,0.782-1.189,0.223-2.189     c-1.07-1.904-2.967-4.703-5.511-6.127c-2.345-1.315-4.066-0.904-5.06-0.378c-0.565,0.302-0.522,1.422,0.088,2.321l0.006,0.006     c0.452,0.661,1.072,0.975,1.494,0.759c0.687-0.351,1.887-0.641,3.455,0.256c1.661,0.949,2.968,2.923,3.704,4.242     C51.017,114.268,51.687,114.731,52.194,114.629z"/>
		</g>
		<path id="XMLID_333_" fill="#5193CF" d="M44.194,113.438c-0.007,1.673,1.197,3.761,2.706,4.671    c1.526,0.921,2.783,0.295,2.793-1.41c0.013-1.707-1.232-3.819-2.761-4.709C45.42,111.111,44.201,111.765,44.194,113.438z"/>
	</g>
	
		<linearGradient id="XMLID_19_" gradientUnits="userSpaceOnUse" x1="309.5667" y1="-206.2241" x2="308.7374" y2="-204.3168" gradientTransform="matrix(1 0 0 -1 -273.5996 -78.8398)">
		<stop offset="0" style="stop-color:#8575B5"/>
		<stop offset="1" style="stop-color:#FEF6F9"/>
	</linearGradient>
	<path id="XMLID_55_" fill="url(#XMLID_19_)" d="M33.487,122.657c-0.001,0.348,0.249,0.781,0.563,0.97   c0.316,0.189,0.576,0.06,0.579-0.293c0.002-0.354-0.256-0.792-0.573-0.977C33.743,122.175,33.489,122.311,33.487,122.657z"/>
	<path id="XMLID_59_" fill="#3F4A9F" d="M63.253,123.317l-0.991-0.578l0,0l-7.455,4.268v1.535l1.348,2.361l7.423-4.276   c0.126-0.059,0.206-0.217,0.207-0.447l0.009-1.826C63.792,123.956,63.552,123.489,63.253,123.317z"/>
	<path id="XMLID_60_" fill="#A29ECE" d="M55.818,127.6l-1.012-0.593v3.278l1.002,0.584c0.298,0.174,0.541-0.006,0.542-0.408   l0.008-1.825C56.36,128.236,56.117,127.771,55.818,127.6z"/>
	<path id="XMLID_61_" fill="#5193CF" d="M55.042,128.007l-0.989-0.579l0,0l-1.271,0.722v1.537l1.348,2.36l1.237-0.73   c0.124-0.059,0.205-0.218,0.205-0.447l0.009-1.828C55.583,128.644,55.341,128.179,55.042,128.007z"/>
	<path id="XMLID_62_" fill="#A29ECE" d="M53.795,128.741l-1.012-0.592v3.278l1.001,0.586c0.298,0.174,0.541-0.011,0.541-0.408   l0.01-1.83C54.336,129.379,54.094,128.916,53.795,128.741z"/>
</g>
<g>
	<g>
		<g>
			<path fill="#58448F" d="M229.913,82.221L111.931,14.635c-2.119-1.214-4.871-1.794-7.251-1.245     c-3.343,0.771-6.479,1.823-6.472,4.749L98.03,127.802l10.38,6.133c-3.396,1.652-106.96,52.06-107.132,52.184l-0.25,4.23     c0,1.825,0.966,3.508,2.545,4.424c17.629,10.211,120.897,69.908,120.897,69.908c3.397,1.963,7.584,1.963,10.982,0l98.151-56.732     c1.023-0.592,1.655-1.684,1.657-2.865l0.17-113.368C235.421,87.792,233.317,84.17,229.913,82.221z"/>
			<g>
				<path fill="#382461" d="M231.955,204.711L97.926,128.237L97.65,18.817c-0.009-3.161,3.407-5.146,6.15-3.574l123.596,70.801      c2.691,1.542,4.354,4.404,4.361,7.504L231.955,204.711z"/>
				<polygon fill="#382461" points="103.165,21.596 225.867,92.025 226.123,195.035 103.165,124.452     "/>
			</g>
			<g>
				<path fill="#FEF9FB" d="M231.878,204.701L97.92,127.447L3.184,182.201c-2.736,1.582-2.736,5.531,0,7.111l123.328,71.271      c2.686,1.553,5.995,1.553,8.679,0L231.878,204.701z"/>
			</g>
			<g>
				<g>
					<path fill="#58448F" d="M194.803,207.078c2.667,1.531,4.002,2.299,6.668,3.83c2.698-1.525,4.047-2.287,6.744-3.813       c-2.668-1.531-4.001-2.299-6.669-3.83C198.849,204.791,197.499,205.555,194.803,207.078z"/>
					<path fill="#58448F" d="M184.958,201.426c2.669,1.531,4.002,2.297,6.67,3.83c2.697-1.525,4.046-2.288,6.743-3.813       c-2.667-1.532-4.001-2.299-6.67-3.83C189.004,199.139,187.655,199.9,184.958,201.426z"/>
					<path fill="#58448F" d="M175.112,195.771c2.669,1.531,4.002,2.299,6.672,3.83c2.695-1.524,4.044-2.287,6.742-3.813       c-2.668-1.531-4.002-2.298-6.67-3.829C179.159,193.484,177.81,194.247,175.112,195.771z"/>
					<path fill="#58448F" d="M165.267,190.118c2.669,1.532,4.002,2.299,6.671,3.831c2.696-1.524,4.045-2.288,6.743-3.813       c-2.669-1.532-4.002-2.299-6.671-3.829C169.314,187.831,167.965,188.593,165.267,190.118z"/>
					<path fill="#58448F" d="M155.422,184.464c2.667,1.533,4.002,2.3,6.67,3.831c2.697-1.523,4.045-2.287,6.743-3.813       c-2.667-1.531-4.002-2.297-6.67-3.83C159.468,182.178,158.12,182.939,155.422,184.464z"/>
					<path fill="#58448F" d="M145.577,178.811c2.667,1.533,4.002,2.299,6.67,3.83c2.696-1.523,4.045-2.287,6.741-3.811       c-2.667-1.532-4.002-2.299-6.67-3.831C149.622,176.523,148.273,177.286,145.577,178.811z"/>
					<path fill="#58448F" d="M135.731,173.157c2.667,1.532,4.002,2.299,6.67,3.829c2.697-1.524,4.046-2.286,6.743-3.812       c-2.667-1.532-4.002-2.298-6.67-3.831C139.776,170.87,138.428,171.632,135.731,173.157z"/>
					<path fill="#58448F" d="M125.885,167.504c2.669,1.531,4.002,2.298,6.671,3.829c2.696-1.522,4.045-2.286,6.743-3.81       c-2.669-1.534-4.002-2.299-6.671-3.832C129.931,165.217,128.583,165.979,125.885,167.504z"/>
					<path fill="#58448F" d="M116.04,161.85c2.669,1.533,4.002,2.299,6.671,3.83c2.696-1.523,4.045-2.285,6.743-3.811       c-2.669-1.533-4.002-2.299-6.671-3.831C120.086,159.563,118.737,160.325,116.04,161.85z"/>
					<path fill="#58448F" d="M106.194,156.197c2.669,1.531,4.002,2.298,6.671,3.828c2.697-1.522,4.045-2.285,6.743-3.813       c-2.669-1.531-4.002-2.297-6.671-3.829C110.241,153.91,108.892,154.672,106.194,156.197z"/>
					<path fill="#58448F" d="M96.35,150.543c2.667,1.531,4.001,2.299,6.67,3.83c2.697-1.524,4.045-2.287,6.743-3.812       c-2.668-1.531-4.002-2.298-6.671-3.83C100.396,148.256,99.047,149.02,96.35,150.543z"/>
					<path fill="#58448F" d="M86.505,144.89c2.668,1.533,4.002,2.298,6.67,3.83c2.698-1.524,4.046-2.287,6.744-3.811       c-2.668-1.533-4.002-2.299-6.67-3.83C90.552,142.604,89.203,143.365,86.505,144.89z"/>
					<path fill="#58448F" d="M185.337,212.43c2.669,1.531,4.002,2.297,6.67,3.829c2.697-1.524,4.046-2.288,6.745-3.813       c-2.669-1.53-4.002-2.297-6.671-3.828C189.384,210.141,188.035,210.904,185.337,212.43z"/>
					<path fill="#58448F" d="M175.492,206.775c2.669,1.531,4.002,2.298,6.671,3.83c2.695-1.525,4.046-2.287,6.742-3.813       c-2.667-1.531-4.002-2.298-6.67-3.831C179.54,204.488,178.191,205.251,175.492,206.775z"/>
					<path fill="#58448F" d="M165.647,201.122c2.669,1.532,4.002,2.298,6.671,3.829c2.696-1.523,4.046-2.286,6.743-3.813       c-2.667-1.531-4.002-2.298-6.67-3.83C169.694,198.835,168.346,199.598,165.647,201.122z"/>
					<path fill="#58448F" d="M155.802,195.469c2.669,1.532,4.002,2.299,6.671,3.83c2.698-1.525,4.046-2.287,6.743-3.813       c-2.668-1.531-4.002-2.299-6.67-3.83C159.849,193.182,158.501,193.943,155.802,195.469z"/>
					<path fill="#58448F" d="M145.957,189.814c2.669,1.531,4.002,2.299,6.671,3.83c2.696-1.523,4.045-2.287,6.743-3.813       c-2.668-1.531-4.002-2.298-6.67-3.829C150.003,187.527,148.654,188.29,145.957,189.814z"/>
					<path fill="#58448F" d="M136.112,184.161c2.668,1.532,4.002,2.299,6.671,3.83c2.697-1.524,4.046-2.286,6.743-3.812       c-2.669-1.533-4.002-2.299-6.671-3.832C140.158,181.874,138.81,182.637,136.112,184.161z"/>
					<path fill="#58448F" d="M126.267,178.508c2.667,1.532,4.002,2.299,6.669,3.831c2.699-1.524,4.046-2.289,6.745-3.813       c-2.669-1.531-4.003-2.297-6.671-3.828C130.312,176.221,128.963,176.982,126.267,178.508z"/>
					<path fill="#58448F" d="M116.42,172.854c2.668,1.532,4.002,2.299,6.67,3.832c2.699-1.525,4.047-2.289,6.744-3.813       c-2.667-1.531-4.001-2.299-6.669-3.83C120.466,170.566,119.118,171.33,116.42,172.854z"/>
					<path fill="#58448F" d="M106.574,167.2c2.669,1.532,4.002,2.298,6.671,3.829c2.696-1.523,4.046-2.286,6.742-3.813       c-2.668-1.531-4.002-2.297-6.67-3.83C110.621,164.914,109.273,165.676,106.574,167.2z"/>
					<path fill="#58448F" d="M96.73,161.547c2.667,1.532,4.001,2.299,6.67,3.83c2.697-1.525,4.046-2.287,6.743-3.813       c-2.667-1.531-4.002-2.299-6.668-3.831C100.776,159.26,99.428,160.021,96.73,161.547z"/>
					<path fill="#58448F" d="M86.885,155.895c2.668,1.531,4.002,2.297,6.67,3.83c2.698-1.524,4.045-2.288,6.743-3.813       c-2.668-1.532-4.001-2.298-6.669-3.83C90.932,153.606,89.583,154.368,86.885,155.895z"/>
					<path fill="#58448F" d="M77.041,150.24c4.473,2.568,6.709,3.854,11.182,6.423c2.698-1.525,4.047-2.288,6.744-3.813       c-4.473-2.569-6.709-3.853-11.183-6.42C81.087,147.953,79.738,148.716,77.041,150.24z"/>
					<path fill="#58448F" d="M171.466,215.248c4.431,2.545,6.646,3.816,11.077,6.361c2.698-1.525,4.045-2.287,6.744-3.813       c-4.432-2.544-6.646-3.815-11.076-6.36C175.513,212.962,174.163,213.725,171.466,215.248z"/>
					<path fill="#58448F" d="M166.028,212.126c2.667,1.532,4.001,2.298,6.67,3.831c2.697-1.525,4.047-2.289,6.743-3.813       c-2.667-1.533-4.002-2.299-6.67-3.83C170.074,209.839,168.726,210.602,166.028,212.126z"/>
					<path fill="#58448F" d="M156.182,206.473c2.668,1.533,4.002,2.299,6.671,3.83c2.697-1.525,4.047-2.287,6.743-3.813       c-2.667-1.531-4.002-2.299-6.668-3.83C160.229,204.186,158.88,204.948,156.182,206.473z"/>
					<path fill="#58448F" d="M146.337,200.818c2.669,1.531,4.002,2.299,6.671,3.83c2.698-1.524,4.047-2.287,6.744-3.812       c-2.668-1.532-4.002-2.299-6.67-3.831C150.384,198.532,149.036,199.294,146.337,200.818z"/>
					<path fill="#58448F" d="M136.492,195.165c2.669,1.532,4.002,2.299,6.671,3.83c2.695-1.524,4.046-2.286,6.742-3.812       c-2.667-1.533-4.002-2.299-6.67-3.832C140.539,192.878,139.19,193.643,136.492,195.165z"/>
					<path fill="#58448F" d="M126.646,189.512c2.668,1.532,4.002,2.299,6.67,3.831c2.698-1.524,4.046-2.288,6.745-3.813       c-2.669-1.531-4.002-2.297-6.671-3.829C130.692,187.225,129.344,187.986,126.646,189.512z"/>
					<path fill="#58448F" d="M116.802,183.857c2.667,1.533,4.002,2.3,6.67,3.83c2.697-1.523,4.046-2.287,6.744-3.813       c-2.668-1.531-4.002-2.298-6.671-3.83C120.848,181.57,119.498,182.332,116.802,183.857z"/>
					<path fill="#58448F" d="M106.956,178.204c2.667,1.532,4.002,2.299,6.67,3.83c2.698-1.523,4.047-2.286,6.744-3.813       c-2.667-1.531-4.002-2.298-6.67-3.828C111.001,175.916,109.653,176.68,106.956,178.204z"/>
					<path fill="#58448F" d="M97.11,172.551c2.667,1.533,4.001,2.299,6.67,3.831c2.697-1.524,4.048-2.288,6.743-3.813       c-2.667-1.53-4.002-2.297-6.669-3.83C101.156,170.264,99.808,171.025,97.11,172.551z"/>
					<path fill="#58448F" d="M87.265,166.896c2.668,1.533,4.002,2.299,6.67,3.83c2.698-1.523,4.046-2.287,6.744-3.813       c-2.668-1.531-4.001-2.298-6.67-3.829C91.311,164.609,89.963,165.373,87.265,166.896z"/>
					<path fill="#58448F" d="M77.42,161.244c2.668,1.531,4.002,2.298,6.67,3.83c2.698-1.525,4.046-2.287,6.744-3.813       c-2.668-1.532-4.002-2.297-6.67-3.83C81.467,158.957,80.118,159.719,77.42,161.244z"/>
					<path fill="#58448F" d="M67.576,155.592c2.667,1.531,4.001,2.297,6.669,3.828c2.696-1.523,4.046-2.286,6.743-3.812       c-2.667-1.532-4.002-2.298-6.67-3.829C71.622,153.304,70.273,154.066,67.576,155.592z"/>
					<path fill="#58448F" d="M166.407,223.13c2.669,1.531,4.002,2.298,6.67,3.83c2.697-1.524,4.046-2.288,6.743-3.812       c-2.668-1.533-4.002-2.299-6.67-3.832C170.454,220.842,169.106,221.605,166.407,223.13z"/>
					<path fill="#58448F" d="M156.563,217.477c2.667,1.532,4.001,2.299,6.67,3.83c2.696-1.524,4.045-2.287,6.743-3.813       c-2.667-1.531-4.002-2.299-6.668-3.83C160.609,215.188,159.261,215.951,156.563,217.477z"/>
					<path fill="#58448F" d="M146.718,211.823c2.668,1.532,4.001,2.298,6.67,3.829c2.698-1.523,4.047-2.286,6.743-3.813       c-2.668-1.531-4.002-2.298-6.669-3.83C150.764,209.536,149.416,210.298,146.718,211.823z"/>
					<path fill="#58448F" d="M136.872,206.169c2.669,1.533,4.002,2.299,6.671,3.831c2.698-1.525,4.047-2.288,6.743-3.813       c-2.668-1.531-4.002-2.299-6.67-3.83C140.918,203.882,139.57,204.646,136.872,206.169z"/>
					<path fill="#58448F" d="M127.027,200.516c2.669,1.533,4.002,2.299,6.671,3.832c2.697-1.525,4.047-2.289,6.743-3.813       c-2.667-1.532-4.002-2.298-6.67-3.83C131.074,198.229,129.725,198.991,127.027,200.516z"/>
					<path fill="#58448F" d="M117.182,194.861c2.667,1.533,4.002,2.299,6.67,3.83c2.697-1.524,4.046-2.287,6.743-3.812       c-2.668-1.532-4.002-2.298-6.671-3.832C121.229,192.575,119.878,193.338,117.182,194.861z"/>
					<path fill="#58448F" d="M107.336,189.209c2.668,1.531,4.002,2.298,6.67,3.83c2.697-1.523,4.046-2.287,6.745-3.813       c-2.669-1.533-4.002-2.299-6.671-3.83C111.382,186.922,110.033,187.686,107.336,189.209z"/>
					<path fill="#58448F" d="M97.491,183.555c2.667,1.532,4.002,2.299,6.67,3.83c2.697-1.523,4.046-2.285,6.743-3.812       c-2.668-1.532-4.002-2.3-6.67-3.831C101.536,181.268,100.188,182.029,97.491,183.555z"/>
					<path fill="#58448F" d="M87.645,177.9c2.668,1.533,4.002,2.299,6.67,3.832c2.698-1.525,4.047-2.289,6.743-3.813       c-2.667-1.533-4.001-2.299-6.67-3.831C91.691,175.614,90.342,176.376,87.645,177.9z"/>
					<path fill="#58448F" d="M77.8,172.247c2.668,1.532,4.002,2.299,6.67,3.831c2.698-1.523,4.046-2.287,6.744-3.813       c-2.668-1.531-4.001-2.299-6.67-3.83C81.846,169.961,80.498,170.725,77.8,172.247z"/>
					<path fill="#58448F" d="M63.702,164.15c4.368,2.511,6.553,3.766,10.923,6.274c2.696-1.526,4.047-2.289,6.743-3.813       c-4.369-2.51-6.554-3.764-10.923-6.272C67.748,161.865,66.4,162.628,63.702,164.15z"/>
					<path fill="#58448F" d="M58.111,160.941c2.668,1.531,4.001,2.298,6.67,3.83c2.696-1.525,4.047-2.287,6.743-3.813       c-2.668-1.531-4.002-2.297-6.67-3.829C62.157,158.654,60.809,159.417,58.111,160.941z"/>
					<path fill="#58448F" d="M155.634,229.221c2.669,1.53,4.002,2.297,6.67,3.828c2.698-1.523,4.046-2.287,6.744-3.811       c-2.668-1.532-4.001-2.299-6.67-3.831C159.681,226.934,158.332,227.693,155.634,229.221z"/>
					<path fill="#58448F" d="M145.791,223.566c2.667,1.531,4.001,2.297,6.67,3.828c2.696-1.522,4.045-2.285,6.743-3.81       c-2.668-1.534-4.002-2.299-6.67-3.831C149.836,221.279,148.488,222.041,145.791,223.566z"/>
					<path fill="#58448F" d="M135.945,217.913c2.668,1.53,4.002,2.299,6.671,3.83c2.695-1.524,4.045-2.286,6.742-3.813       c-2.668-1.531-4.002-2.299-6.67-3.83C139.991,215.626,138.643,216.389,135.945,217.913z"/>
					<path fill="#58448F" d="M76.873,183.991c18.633,10.698,37.264,21.399,55.896,32.1c2.698-1.524,4.045-2.288,6.743-3.813       c-18.633-10.699-37.266-21.398-55.897-32.1C80.918,181.704,79.57,182.467,76.873,183.991z"/>
					<path fill="#58448F" d="M67.027,178.338c2.668,1.532,4.002,2.298,6.67,3.83c2.698-1.525,4.047-2.287,6.744-3.813       c-2.668-1.531-4.002-2.299-6.67-3.83C71.073,176.05,69.725,176.813,67.027,178.338z"/>
					<path fill="#58448F" d="M57.182,172.684c2.668,1.534,4.002,2.299,6.67,3.832c2.698-1.524,4.046-2.287,6.744-3.813       c-2.668-1.532-4.002-2.299-6.67-3.83C61.228,170.396,59.879,171.159,57.182,172.684z"/>
					<path fill="#58448F" d="M47.338,167.031c2.668,1.531,4.002,2.298,6.67,3.83c2.696-1.524,4.046-2.287,6.742-3.813       c-2.667-1.53-4.001-2.297-6.668-3.829C51.384,164.745,50.036,165.507,47.338,167.031z"/>
				</g>
			</g>
			<polygon fill="#58448F" points="122.547,218.835 76.583,192.297 50.317,208.479 96.264,235.025    "/>
		</g>
		<g>
			<g>
				<polygon fill="#806CB1" points="122.205,88.396 114.226,83.789 114.226,84.125 122.067,88.651     "/>
			</g>
			<g>
				<polygon fill="#806CB1" points="128.322,92.263 128.477,92.017 125.375,90.226 125.523,90.647     "/>
			</g>
			<g>
				<polygon fill="#806CB1" points="118.558,95.165 114.202,92.651 114.201,92.977 118.423,95.414     "/>
			</g>
			<g enable-background="new    ">
				<g>
					<polygon fill="#8A8CC4" points="118.423,95.414 114.171,103.303 119.422,106.335 134.071,114.792 126.895,94.52        125.523,90.647 125.375,90.226 123.728,85.571 122.205,88.396 122.067,88.651 118.558,95.165      "/>
				</g>
				<g>
					<polygon fill="#90CBEF" points="128.322,92.263 126.895,94.52 134.071,114.792 139.426,112.764 136.872,106.065        136.713,105.647 132.539,94.697 132.373,94.267 130.373,89.02 128.477,92.017      "/>
				</g>
				<g>
					<polygon fill="#8A8CC4" points="144.89,110.694 139.426,112.764 134.071,114.792 141.929,119.329 155.658,127.256        146.707,113.275 145.15,110.844 145.022,110.644      "/>
				</g>
				<g>
					<polygon fill="#806CB1" points="147.537,112.222 147.713,111.998 136.713,105.647 136.872,106.065 144.89,110.694        145.022,110.644 145.15,110.844      "/>
				</g>
				<g>
					<polygon fill="#90CBEF" points="147.537,112.222 146.707,113.275 155.658,127.256 157.746,123.189 154.958,116.507        154.779,116.079 151.221,107.551 147.713,111.998      "/>
				</g>
				<g>
					<polygon fill="#806CB1" points="159.755,119.275 159.884,119.025 154.779,116.079 154.958,116.507      "/>
				</g>
				<g>
					<polygon fill="#806CB1" points="163.268,112.438 163.398,112.179 132.373,94.267 132.539,94.697      "/>
				</g>
				<g>
					<polygon fill="#8A8CC4" points="159.755,119.275 157.746,123.189 155.658,127.256 160.644,130.135 173.607,137.619        167.665,118.383 166.385,114.239 166.259,113.83 164.866,109.323 163.398,112.179 163.268,112.438 159.884,119.025      "/>
				</g>
				<g>
					<polygon fill="#806CB1" points="169.178,115.851 169.327,115.601 166.259,113.83 166.385,114.239      "/>
				</g>
				<g>
					<polygon fill="#806CB1" points="173.522,108.58 114.254,74.363 114.253,74.698 173.373,108.83      "/>
				</g>
				<g>
					<polygon fill="#806CB1" points="114.279,65.5 114.277,65.836 213.96,123.386 214.342,123.607 214.343,123.272 213.96,123.051             "/>
				</g>
			</g>
			<g>
				<polygon fill="#806CB1" points="214.319,132.134 213.935,131.913 175.805,109.897 175.974,110.332 213.935,132.248       214.316,132.47     "/>
			</g>
			<g>
				<polygon fill="#806CB1" points="183.989,124.402 184.17,124.171 180.582,122.099 180.751,122.533     "/>
			</g>
			<g>
				<polygon fill="#806CB1" points="214.266,150.423 213.884,150.202 206.738,146.077 206.955,146.526 213.882,150.526       214.266,150.747     "/>
			</g>
			<g enable-background="new    ">
				<g>
					<polygon fill="#8A8CC4" points="183.989,124.402 182.316,126.531 173.607,137.619 190.472,147.354 204.063,155.202        198.208,140.815 193.845,130.093 193.667,129.654 188.956,118.078 184.17,124.171      "/>
				</g>
				<g>
					<polygon fill="#90CBEF" points="202.47,137.212 198.208,140.815 204.063,155.202 213.854,160.854 206.955,146.526        206.738,146.077      "/>
				</g>
				<g>
					<polygon fill="#806CB1" points="214.291,141.562 213.909,141.34 193.667,129.654 193.845,130.093 213.907,141.675        214.29,141.896      "/>
				</g>
			</g>
			<g>
				<polygon fill="#90CBEF" points="169.178,115.851 167.665,118.383 173.607,137.619 182.316,126.531 180.751,122.533       180.582,122.099 175.974,110.332 175.805,109.897 174.589,106.794 173.522,108.58 173.373,108.83 169.327,115.601     "/>
			</g>
			<g>
				<polygon fill="#806CB1" points="114.307,55.517 114.306,55.842 214.37,113.615 214.372,113.291     "/>
			</g>
			<g>
				<polygon fill="#806CB1" points="213.988,113.561 213.96,123.051 214.343,123.272 214.342,123.607 213.96,123.386       213.935,131.913 214.317,132.134 214.316,132.47 213.935,132.248 213.909,141.34 214.291,141.562 214.29,141.896       213.907,141.675 213.884,150.202 214.266,150.423 214.266,150.747 213.882,150.526 213.853,160.854 113.753,103.062       113.75,103.501 214.235,161.518 214.37,113.782     "/>
			</g>
		</g>
		<path opacity="0.2" fill="#FEF9FB" enable-background="new    " d="M103.8,15.243l123.596,70.801    c2.691,1.542,4.354,4.404,4.361,7.504l0.199,111.163l-4.032-2.301c-24.036-35.52-114.599-169.412-126.475-187.696    C102.226,14.653,103.037,14.806,103.8,15.243z"/>
	</g>
</g>
<g id="XMLID_630_">
	<polygon id="XMLID_590_" fill="#2E2E36" points="318.218,87.901 419.951,29.506 470.672,58.5 369.233,117.354  "/>
	<path id="XMLID_589_" fill="#40404C" d="M369.233,156.568l95.958-55.4c3.391-1.958,5.48-5.577,5.48-9.494V58.5l-101.438,58.854   V156.568L369.233,156.568z"/>
	<path id="XMLID_588_" fill="#323239" d="M369.233,156.568l-45.512-26.122c-3.405-1.954-5.504-5.581-5.504-9.507V87.901   l51.016,29.454V156.568z"/>
	<g id="XMLID_594_">
		<polygon id="XMLID_593_" fill="#4C4C57" points="318.218,79.127 419.951,20.733 470.672,49.727 369.233,108.582   "/>
		<polygon id="XMLID_592_" fill="#40404C" points="369.233,113.121 470.672,54.555 470.672,49.727 369.233,108.582   "/>
		<polygon id="XMLID_591_" fill="#323239" points="369.233,113.121 318.218,83.838 318.218,79.127 369.233,108.582   "/>
	</g>
	<polygon id="XMLID_595_" fill="#2E2E36" points="344.674,63.941 395.384,93.409 395.384,98.023 396.952,97.117 396.952,92.499    346.28,63.019  "/>
	<polygon id="XMLID_596_" fill="#323239" points="406.876,80.521 368.733,58.5 419.951,29.506 457.7,51.398  "/>
	<g id="XMLID_598_">
		<path id="XMLID_597_" fill="#323239" d="M368.569,102.307l-1.376-0.795c-0.904-0.522-0.885-1.835,0.035-2.33l1.5-0.807    c0.407-0.22,0.899-0.212,1.301,0.019l1.32,0.763c0.889,0.512,0.89,1.794,0.002,2.309l-1.445,0.839    C369.491,102.545,368.984,102.545,368.569,102.307z"/>
		<path id="XMLID_599_" fill="#323239" d="M374.262,98.941l-1.377-0.794c-0.904-0.522-0.886-1.835,0.036-2.331l1.5-0.807    c0.406-0.218,0.897-0.21,1.3,0.021l1.319,0.763c0.89,0.513,0.891,1.794,0.004,2.31l-1.445,0.838    C375.185,99.18,374.676,99.18,374.262,98.941z"/>
		<path id="XMLID_600_" fill="#323239" d="M379.952,95.577l-1.376-0.794c-0.903-0.522-0.885-1.835,0.035-2.331l1.5-0.807    c0.408-0.219,0.899-0.212,1.299,0.02l1.322,0.762c0.889,0.513,0.89,1.795,0.002,2.309l-1.443,0.838    C380.877,95.815,380.367,95.816,379.952,95.577z"/>
	</g>
	<g id="XMLID_602_">
		<path id="XMLID_605_" fill="#323239" d="M363.092,98.941l-1.375-0.794c-0.905-0.522-0.887-1.835,0.034-2.331l1.5-0.807    c0.408-0.218,0.899-0.21,1.301,0.021l1.32,0.763c0.889,0.513,0.89,1.794,0.003,2.31l-1.445,0.838    C364.017,99.18,363.507,99.18,363.092,98.941z"/>
		<path id="XMLID_604_" fill="#323239" d="M368.783,95.577l-1.375-0.794c-0.904-0.522-0.886-1.835,0.035-2.331l1.5-0.807    c0.406-0.219,0.898-0.212,1.299,0.02l1.32,0.762c0.889,0.513,0.891,1.795,0.003,2.309l-1.445,0.838    C369.709,95.815,369.198,95.816,368.783,95.577z"/>
		<path id="XMLID_603_" fill="#323239" d="M374.477,92.212l-1.375-0.794c-0.906-0.522-0.886-1.835,0.033-2.33l1.502-0.808    c0.407-0.219,0.897-0.211,1.299,0.02l1.321,0.764c0.888,0.512,0.889,1.793,0.002,2.309l-1.445,0.839    C375.4,92.451,374.891,92.452,374.477,92.212z"/>
	</g>
	<g id="XMLID_606_">
		<path id="XMLID_609_" fill="#323239" d="M357.615,95.577l-1.377-0.794c-0.904-0.522-0.886-1.835,0.035-2.331l1.5-0.807    c0.408-0.219,0.899-0.212,1.3,0.02l1.321,0.762c0.888,0.513,0.889,1.795,0.001,2.309l-1.444,0.838    C358.538,95.815,358.029,95.816,357.615,95.577z"/>
		<path id="XMLID_608_" fill="#323239" d="M363.307,92.212l-1.375-0.794c-0.905-0.522-0.886-1.835,0.035-2.33l1.5-0.808    c0.408-0.219,0.897-0.211,1.299,0.02l1.321,0.764c0.888,0.512,0.891,1.793,0.002,2.309l-1.444,0.839    C364.231,92.451,363.721,92.452,363.307,92.212z"/>
		<path id="XMLID_607_" fill="#323239" d="M369,88.848l-1.377-0.795c-0.905-0.521-0.886-1.834,0.034-2.33l1.501-0.807    c0.407-0.218,0.898-0.211,1.299,0.02l1.321,0.763c0.889,0.513,0.892,1.794,0.002,2.309l-1.444,0.839    C369.923,89.085,369.412,89.086,369,88.848z"/>
	</g>
	<g id="XMLID_610_">
		<path id="XMLID_613_" fill="#323239" d="M352.139,92.212l-1.376-0.794c-0.906-0.522-0.885-1.835,0.034-2.33l1.501-0.808    c0.406-0.219,0.897-0.211,1.299,0.02l1.321,0.764c0.888,0.512,0.891,1.793,0.003,2.309l-1.446,0.839    C353.062,92.451,352.552,92.452,352.139,92.212z"/>
		<path id="XMLID_612_" fill="#323239" d="M357.83,88.848l-1.377-0.795c-0.903-0.521-0.886-1.834,0.035-2.33l1.501-0.807    c0.407-0.218,0.897-0.211,1.298,0.02l1.322,0.763c0.889,0.513,0.891,1.794,0.003,2.309l-1.444,0.839    C358.754,89.085,358.243,89.086,357.83,88.848z"/>
		<path id="XMLID_611_" fill="#323239" d="M363.522,85.483l-1.376-0.794c-0.904-0.523-0.885-1.836,0.034-2.331l1.501-0.807    c0.407-0.22,0.897-0.212,1.299,0.019l1.322,0.764c0.889,0.512,0.889,1.794,0.003,2.309l-1.447,0.839    C364.445,85.721,363.936,85.722,363.522,85.483z"/>
	</g>
	<path id="XMLID_622_" fill="#323239" d="M356.269,75.641c-0.399-0.23-0.889-0.237-1.296-0.019l-3.609,1.941l-9.415,5.565   c-0.879,0.52-0.871,1.795,0.016,2.305l4.263,2.452c0.417,0.239,0.931,0.236,1.345-0.009l10.715-6.333l2.108-1.224   c0.889-0.516,0.886-1.799-0.003-2.311L356.269,75.641z"/>
	<path id="XMLID_614_" fill="#94BD42" d="M338.352,82.974l-0.854-0.492c-0.56-0.323-0.548-1.137,0.022-1.443l0.93-0.499   c0.251-0.136,0.557-0.131,0.805,0.012l0.818,0.473c0.55,0.317,0.551,1.111,0.001,1.429l-0.896,0.52   C338.924,83.122,338.607,83.122,338.352,82.974z"/>
	<path id="XMLID_621_" fill="#94BD42" d="M342.56,80.339l-0.854-0.492c-0.56-0.324-0.548-1.137,0.022-1.443l0.93-0.5   c0.251-0.136,0.557-0.131,0.805,0.012l0.818,0.473c0.55,0.317,0.551,1.112,0.001,1.431l-0.896,0.519   C343.131,80.486,342.814,80.487,342.56,80.339z"/>
	<path id="XMLID_623_" fill="#D65029" d="M350.74,75.964l-0.852-0.493c-0.563-0.323-0.549-1.136,0.021-1.442l0.93-0.5   c0.252-0.136,0.557-0.131,0.805,0.011l0.818,0.474c0.551,0.317,0.551,1.111,0.001,1.43l-0.896,0.52   C351.313,76.112,350.997,76.112,350.74,75.964z"/>
	<polygon id="XMLID_601_" fill="#D65029" points="376.048,123.252 379.474,121.274 379.474,117.354 376.048,119.292  "/>
	<polygon id="XMLID_625_" fill="#94BD42" points="376.048,130.943 379.474,128.965 379.474,125.045 376.048,126.983  "/>
	<polygon id="XMLID_627_" fill="#323239" points="403.046,104.752 464.191,68.584 464.191,94.851 403.046,130.943  "/>
	<polygon id="XMLID_628_" fill="#4C4C57" points="403.046,125.421 445.125,151.625 501.94,117.354 440.466,82.619 403.046,104.752     "/>
	<polygon id="XMLID_624_" fill="#323239" points="445.125,155.543 445.125,151.625 403.046,125.421 403.046,129.106  "/>
	<polygon id="XMLID_629_" fill="#28282B" points="445.125,151.625 501.94,117.354 501.94,122.052 445.125,155.543  "/>
	<polygon id="XMLID_632_" fill="#FFFFFF" points="403.046,123.252 447.367,151.625 503.846,117.354 441.911,81.763 403.046,104.752     "/>
</g>
<g>
	<g>
		<defs>
			<polygon id="SVGID_2_" points="522.078,98.59 597.38,142.065 643.957,114.996 568.659,71.522    "/>
		</defs>
		<clipPath id="SVGID_3_">
			<use xlink:href="#SVGID_2_" overflow="visible"/>
		</clipPath>
		<path clip-path="url(#SVGID_3_)" fill="#23BAE3" d="M600.005,89.62l-31.349-18.098l-11.813,6.867l31.345,18.096    c13.155,7.595,14.438,19.507,3.812,27.908l-7.369-4.254l0.088,14.617l25.233,0.002l-5.978-3.45    C621.064,119.075,619.723,101.004,600.005,89.62"/>
	</g>
</g>
<g>
	<g>
		<defs>
			<polygon id="SVGID_4_" points="220.076,45.789 269.881,74.544 349.349,28.363 299.543,-0.393    "/>
		</defs>
		<clipPath id="SVGID_5_">
			<use xlink:href="#SVGID_4_" overflow="visible"/>
		</clipPath>
		<path clip-path="url(#SVGID_5_)" fill="#23BAE3" d="M335.899,20.598l-6.306,3.665c-22.494-10.558-55.627-9.792-76.437,2.301    l-33.081,19.224l12.627,7.291l33.081-19.225c13.878-8.065,35.73-8.813,51.167-2.245l-7.775,4.521l26.81-0.001L335.899,20.598"/>
	</g>
</g>
</svg>